<svg height="490pt" viewBox="-10 0 490 490.00752" width="490pt" xmlns="http://www.w3.org/2000/svg"><path d="m225 251.539062c34.636719-.039062 62.710938-28.113281 62.75-62.75v-42.167968c-.019531-22.621094-12.207031-43.484375-31.902344-54.609375 8.542969-14.707031 5.328125-33.421875-7.636718-44.433594-12.960938-11.011719-31.949219-11.160156-45.082032-.347656-13.132812 10.808593-16.636718 29.46875-8.324218 44.308593-18.179688 9.917969-30.261719 28.203126-32.25 48.816407-.042969.410156-.164063 1.660156-.308594 48.433593.039062 34.640626 28.109375 62.710938 62.753906 62.75zm-20.675781-177.183593c-.007813-9.117188 5.824219-17.207031 14.476562-20.082031 8.648438-2.871094 18.164063.121093 23.609375 7.429687 5.449219 7.308594 5.597656 17.28125.375 24.75-5.773437-1.710937-11.765625-2.582031-17.789062-2.582031-5.753906-.003906-11.484375.777344-17.03125 2.324218-2.375-3.492187-3.644532-7.617187-3.640625-11.839843zm20.675781 23.511719c26.910156.03125 48.71875 21.839843 48.75 48.75v9.125c-51.71875-4.742188-77.070312-30.511719-85.503906-41.242188 9.265625-10.605469 22.671875-16.671875 36.753906-16.632812zm-48.496094 43.707031c.515625-5.039063 1.8125-9.972657 3.839844-14.613281 5.082031 5.804687 10.761719 11.054687 16.949219 15.664062-3.5 8-11.585938 14.65625-20.933594 17.4375.050781-9.484375.101563-17.113281.144531-18.488281zm-.207031 32.921875c14.101563-2.910156 26.585937-12.179688 32.75-24.070313 15.53125 9.078125 36.679687 17.023438 64.703125 19.375v18.984375c.003906 26.925782-21.816406 48.757813-48.742188 48.761719-26.921874.007813-48.753906-21.816406-48.757812-48.738281.011719-4.375.027344-9.308594.046875-14.308594zm0 0"/><path d="m453.949219 227c-.003907-91.8125-55.308594-174.585938-140.132813-209.71875-84.824218-35.136719-182.460937-15.714844-247.382812 49.207031-78.121094 78.183594-88.585938 201.261719-24.789063 291.515625 63.792969 90.253906 183.3125 121.453125 283.082031 73.894532l-2.007812 47.714843c-.003906.097657-.007812.195313-.007812.292969-.007813 3.933594 2.265624 7.515625 5.832031 9.179688 3.554687 1.644531 7.742187 1.035156 10.683593-1.550782l43.722657-37.667968 43.734375 37.683593c1.808594 1.578125 4.125 2.449219 6.523437 2.457031 1.433594-.003906 2.847657-.316406 4.144531-.917968 3.566407-1.664063 5.839844-5.246094 5.832032-9.179688 0-.097656-.003906-.195312-.007813-.292968l-4.148437-98.488282c35.816406-30.152344 41.289062-83.269531 12.375-120.09375 1.691406-11.265625 2.542968-22.640625 2.546875-34.035156zm-440 0c0-117.449219 95.550781-213 213-213 117.445312 0 213 95.550781 213 213 0 7.046875-.355469 14.109375-1.042969 21.113281-18.195312-15.332031-41.878906-22.527343-65.527344-19.910156-23.648437 2.613281-45.1875 14.816406-59.589844 33.753906h-35.640624c-2.726563 0-5.203126 1.582031-6.351563 4.054688l-10.40625 22.417969c-6.222656 13.40625-19.78125 21.867187-34.558594 21.5625-14.78125-.300782-27.980469-9.3125-33.648437-22.964844-.019532-.046875-.042969-.097656-.0625-.140625l-9.160156-20.757813c-1.121094-2.535156-3.628907-4.171875-6.402344-4.175781h-15.875c-18.296875 0-35.742188 7.71875-48.046875 21.253906-12.308594 13.539063-18.332031 31.640625-16.589844 49.855469v62.617188c-52.390625-40.269532-83.097656-102.597657-83.097656-168.679688zm213 213c-41.15625.046875-81.429688-11.898438-115.902344-34.378906v-72.898438c0-.238281-.011719-.472656-.035156-.707031-1.449219-14.328125 3.230469-28.597656 12.886719-39.28125 9.660156-10.683594 23.386718-16.777344 37.785156-16.777344h11.3125l7.289062 16.519531c7.820313 18.753907 25.984375 31.117188 46.300782 31.519532 20.316406.398437 38.949218-11.242188 47.503906-29.671875l8.527344-18.367188h22.4375c-17.871094 35.890625-8.855469 79.351563 21.8125 105.171875l-1.464844 34.777344c-30.40625 15.824219-64.175782 24.089844-98.453125 24.09375zm201.847656 30.898438-39.097656-33.6875c-3.785157-3.59375-9.71875-3.59375-13.5 0l-39.101563 33.691406 3.382813-80.316406c26.378906 14.792968 58.554687 14.792968 84.933593 0zm-45.847656-83.226563c-40.320313 0-73-32.679687-73-73 0-40.316406 32.679687-73 73-73 40.316406 0 73 32.683594 73 73-.046875 40.300781-32.703125 72.957031-73 73zm0 0"/><path d="m419.304688 280.632812-47.96875 47.972657-24.726563-24.964844c-1.753906-1.804687-4.339844-2.527344-6.773437-1.894531-2.433594.632812-4.34375 2.523437-5 4.949218-.65625 2.429688.042968 5.023438 1.828124 6.796876l29.671876 29.960937c1.3125 1.324219 3.097656 2.070313 4.957031 2.074219h.019531c1.855469 0 3.636719-.738282 4.949219-2.050782l52.945312-52.945312c2.734375-2.734375 2.734375-7.164062 0-9.898438-2.734375-2.734374-7.167969-2.734374-9.902343 0zm0 0"/></svg>