<?xml version="1.0" encoding="iso-8859-1"?>
<!-- Generator: Adobe Illustrator 19.0.0, SVG Export Plug-In . SVG Version: 6.00 Build 0)  -->
<svg version="1.1" id="Capa_1" xmlns="http://www.w3.org/2000/svg" xmlns:xlink="http://www.w3.org/1999/xlink" x="0px" y="0px"
	 viewBox="0 0 512 512" style="enable-background:new 0 0 512 512;" xml:space="preserve">
<g>
	<g>
		<path d="M197.74,62.524c-5.615-22.944-26.34-40.025-50.99-40.025c-28.949,0-52.5,23.552-52.5,52.5s23.551,52.5,52.5,52.5
			c10.416,0,20.124-3.061,28.297-8.314c5.9,5.293,13.601,8.314,21.703,8.314c17.92,0,32.5-14.579,32.5-32.5
			C229.25,77.41,215.203,63.051,197.74,62.524z M146.75,37.499c5.583,0,10.88,1.235,15.646,3.433
			c-13.717,14.935-32.143,24.147-52.297,26.147C113.745,50.193,128.79,37.499,146.75,37.499z M146.75,112.499
			c-18.229,0-33.454-13.076-36.806-30.34c25.031-2.055,47.916-13.495,64.607-32.298c6.024,6.655,9.699,15.475,9.699,25.138
			C184.25,95.677,167.428,112.499,146.75,112.499z M196.75,112.499c-3.718,0-7.277-1.186-10.217-3.301
			c7.369-8.56,12.04-19.504,12.649-31.51c8.499,1.19,15.068,8.489,15.068,17.311C214.25,104.648,206.399,112.499,196.75,112.499z"/>
	</g>
</g>
<g>
	<g>
		<path d="M474.5,232.499h-9.625v-62.5c0-4.143-3.358-7.5-7.5-7.5h-75c-4.142,0-7.5,3.357-7.5,7.5v40c0,4.143,3.358,7.5,7.5,7.5
			c4.142,0,7.5-3.357,7.5-7.5v-32.5h60v55h-94.25v-62.5c0-4.143-3.358-7.5-7.5-7.5h-75c-4.142,0-7.5,3.357-7.5,7.5v40
			c0,4.143,3.358,7.5,7.5,7.5c4.142,0,7.5-3.357,7.5-7.5v-32.5h60v55H199.25v-55.286c50.271-3.842,90-45.976,90-97.214
			c0-4.143-3.358-7.5-7.5-7.5c-4.142,0-7.5,3.357-7.5,7.5c0,43.343-33.605,78.961-76.125,82.229
			c-3.362-11.39-13.91-19.729-26.375-19.729h-50c-12.563,0-23.178,8.472-26.452,20H79.25v-45.436c2.911-1.031,5-3.8,5-7.064
			c0-4.143-3.358-7.5-7.5-7.5h-12.5v-52.5c0-4.143-3.358-7.5-7.5-7.5c-4.142,0-7.5,3.357-7.5,7.5v52.5h-12.5
			c-4.142,0-7.5,3.357-7.5,7.5c0,3.264,2.089,6.034,5,7.064v15.436h-7.5c-12.407,0-22.5,10.094-22.5,22.5s10.093,22.5,22.5,22.5h7.5
			v7.5c0,12.406,10.093,22.5,22.5,22.5s22.5-10.094,22.5-22.5v-7.5h15v55H37.5c-20.678,0-37.5,16.822-37.5,37.5
			c0,18.11,12.904,33.261,30,36.745v175.255c0,4.143,3.358,7.5,7.5,7.5c4.142,0,7.5-3.357,7.5-7.5v-39.5h64.25v24.095l-24.872,8.29
			c-3.93,1.31-6.053,5.558-4.744,9.487c1.048,3.143,3.974,5.13,7.114,5.13c0.786,0,1.586-0.125,2.373-0.387l30-10
			c3.062-1.021,5.128-3.887,5.128-7.115v-89.5h45v45H142.5c-4.142,0-7.5,3.357-7.5,7.5s3.358,7.5,7.5,7.5h26.75v29.5
			c0,3.229,2.066,6.095,5.128,7.115l30,10c0.787,0.262,1.586,0.387,2.373,0.387c3.14,0,6.066-1.987,7.114-5.13
			c1.31-3.93-0.814-8.178-4.744-9.487l-24.872-8.29v-24.095H467v39.5c0,4.143,3.358,7.5,7.5,7.5c4.142,0,7.5-3.357,7.5-7.5V306.744
			c17.096-3.484,30-18.635,30-36.745C512,249.321,495.178,232.499,474.5,232.499z M34.25,162.499h-7.5c-4.136,0-7.5-3.364-7.5-7.5
			c0-4.136,3.364-7.5,7.5-7.5h7.5V162.499z M64.25,184.999c0,4.136-3.364,7.5-7.5,7.5s-7.5-3.364-7.5-7.5v-37.5h15V184.999z
			 M64.25,132.499h-15v-15h15V132.499z M395.23,247.499h49.291c-4.719,6.272-7.52,14.064-7.52,22.5c0,8.436,2.801,16.228,7.52,22.5
			H395.23c4.719-6.272,7.52-14.064,7.52-22.5C402.75,261.563,399.949,253.771,395.23,247.499z M365.25,247.499
			c12.407,0,22.5,10.094,22.5,22.5s-10.093,22.5-22.5,22.5c-12.407,0-22.5-10.094-22.5-22.5S352.843,247.499,365.25,247.499z
			 M285.98,247.499h49.291c-4.719,6.272-7.52,14.064-7.52,22.5c0,8.436,2.8,16.228,7.519,22.5h-49.29
			c4.719-6.272,7.52-14.064,7.52-22.5C293.5,261.563,290.699,253.771,285.98,247.499z M256,247.499c12.407,0,22.5,10.094,22.5,22.5
			s-10.093,22.5-22.5,22.5c-12.407,0-22.5-10.094-22.5-22.5S243.593,247.499,256,247.499z M226.02,247.499
			c-4.719,6.272-7.52,14.064-7.52,22.5c0,8.436,2.801,16.228,7.52,22.5h-49.29c4.719-6.272,7.52-14.064,7.52-22.5
			c0-8.436-2.801-16.228-7.52-22.5H226.02z M169.25,157.499h2.5c6.893,0,12.5,5.607,12.5,12.5v31.21
			c-8.729-3.096-15-11.433-15-21.21V157.499z M139.25,157.499h15v15h-15V157.499z M109.25,169.999c0-6.893,5.607-12.5,12.5-12.5h2.5
			v22.5c0,9.777-6.271,18.114-15,21.21V169.999z M109.249,216.744L109.249,216.744c14.673-2.99,26.256-14.573,29.246-29.245h16.509
			c2.99,14.672,14.573,26.255,29.245,29.245v15.755h-75V216.744z M169.25,269.999c0,12.406-10.093,22.5-22.5,22.5
			s-22.5-10.094-22.5-22.5s10.093-22.5,22.5-22.5S169.25,257.593,169.25,269.999z M67.48,247.499h49.29
			c-4.719,6.272-7.52,14.064-7.52,22.5c0,8.436,2.801,16.228,7.52,22.5H67.48c4.719-6.272,7.52-14.064,7.52-22.5
			C75,261.563,72.199,253.771,67.48,247.499z M37.5,292.499c-12.407,0-22.5-10.094-22.5-22.5s10.093-22.5,22.5-22.5
			s22.5,10.094,22.5,22.5S49.907,292.499,37.5,292.499z M109.25,427.499H45v-75h34.25v22.5c0,4.143,3.358,7.5,7.5,7.5h22.5V427.499z
			 M94.25,367.499v-15h105v15H94.25z M467,427.499H184.25v-45h22.5c4.142,0,7.5-3.357,7.5-7.5v-22.5H467V427.499z M467,337.499H45
			v-30h422V337.499z M474.5,292.499c-12.407,0-22.5-10.094-22.5-22.5s10.093-22.5,22.5-22.5c12.407,0,22.5,10.094,22.5,22.5
			S486.907,292.499,474.5,292.499z"/>
	</g>
</g>
<g>
	<g>
		<circle cx="474.5" cy="269.99" r="7.5"/>
	</g>
</g>
<g>
	<g>
		<circle cx="37.5" cy="270" r="7.5"/>
	</g>
</g>
<g>
	<g>
		<circle cx="146.75" cy="270" r="7.5"/>
	</g>
</g>
<g>
	<g>
		<circle cx="256" cy="270" r="7.5"/>
	</g>
</g>
<g>
	<g>
		<circle cx="365.25" cy="270" r="7.5"/>
	</g>
</g>
<g>
</g>
<g>
</g>
<g>
</g>
<g>
</g>
<g>
</g>
<g>
</g>
<g>
</g>
<g>
</g>
<g>
</g>
<g>
</g>
<g>
</g>
<g>
</g>
<g>
</g>
<g>
</g>
<g>
</g>
</svg>
