<?xml version="1.0" encoding="UTF-8"?>
<svg xmlns="http://www.w3.org/2000/svg" xmlns:xlink="http://www.w3.org/1999/xlink" width="32pt" height="32pt" viewBox="0 0 32 32" version="1.1">
<g id="surface1">
<path style=" stroke:none;fill-rule:nonzero;fill:#2E3191;fill-opacity:1;" d="M 16 0 C 9.609375 0 4.410156 5.199219 4.410156 11.589844 C 4.410156 19.519531 14.78125 31.160156 15.222656 31.652344 C 15.636719 32.117188 16.363281 32.113281 16.777344 31.652344 C 17.21875 31.160156 27.589844 19.519531 27.589844 11.589844 C 27.589844 5.199219 22.390625 0 16 0 Z M 16 17.421875 C 12.785156 17.421875 10.167969 14.804688 10.167969 11.589844 C 10.167969 8.375 12.785156 5.757812 16 5.757812 C 19.214844 5.757812 21.832031 8.375 21.832031 11.589844 C 21.832031 14.804688 19.214844 17.421875 16 17.421875 Z M 16 17.421875 "/>
</g>
</svg>
